solid WRAP
facet normal 0.686312549 -0.057082806 0.725063196
outer loop
vertex -5.754127066 -0.071827746 -38.810930741
vertex -5.067684727 -0.315351529 -39.479858658
vertex -5.857474926 0.496287015 -38.668379695
endloop
endfacet
facet normal 0.691746857 -0.047320463 0.720587995
outer loop
vertex -5.857474926 0.496287015 -38.668379695
vertex -5.067684727 -0.315351529 -39.479858658
vertex -4.937788138 0.325794770 -39.562452621
endloop
endfacet
facet normal 0.951268148 0.099841910 0.291754182
outer loop
vertex -5.754127066 -0.071827746 -38.810930741
vertex -5.857474926 0.496287015 -38.668379695
vertex -6.152955570 0.223092646 -37.611470858
endloop
endfacet
facet normal 0.603423711 -0.390614611 0.695197850
outer loop
vertex -5.113942969 1.237825609 -38.897104515
vertex -5.857474926 0.496287015 -38.668379695
vertex -4.937788138 0.325794770 -39.562452621
endloop
endfacet
facet normal 0.710123264 -0.596811501 0.373551847
outer loop
vertex -6.052456839 0.848494190 -37.735008628
vertex -5.857474926 0.496287015 -38.668379695
vertex -5.113942969 1.237825609 -38.897104515
endloop
endfacet
facet normal 0.604095587 -0.762241555 0.232500179
outer loop
vertex -5.082833363 1.627341524 -37.700924612
vertex -6.052456839 0.848494190 -37.735008628
vertex -5.113942969 1.237825609 -38.897104515
endloop
endfacet
facet normal 0.290987164 0.064017421 0.954582757
outer loop
vertex -4.937788138 0.325794770 -39.562452621
vertex -5.067684727 -0.315351529 -39.479858658
vertex -4.019431650 -0.572010038 -39.782187159
endloop
endfacet
facet normal 0.121535053 -0.116923697 0.985676458
outer loop
vertex -3.922717873 0.556212526 -39.660279166
vertex -4.937788138 0.325794770 -39.562452621
vertex -4.019431650 -0.572010038 -39.782187159
endloop
endfacet
facet normal 0.203109005 -0.551170155 0.809294873
outer loop
vertex -5.113942969 1.237825609 -38.897104515
vertex -4.937788138 0.325794770 -39.562452621
vertex -3.922717873 0.556212526 -39.660279166
endloop
endfacet
facet normal 0.017503368 -0.731994391 0.681085783
outer loop
vertex -5.113942969 1.237825609 -38.897104515
vertex -3.922717873 0.556212526 -39.660279166
vertex -3.648428395 1.230560060 -38.942575705
endloop
endfacet
facet normal 0.011242804 -0.865574095 0.500654658
outer loop
vertex -3.648428395 1.230560060 -38.942575705
vertex -4.135011687 1.558939201 -38.363919273
vertex -5.113942969 1.237825609 -38.897104515
endloop
endfacet
facet normal 0.143972979 -0.942046841 0.303017376
outer loop
vertex -5.113942969 1.237825609 -38.897104515
vertex -4.135011687 1.558939201 -38.363919273
vertex -5.082833363 1.627341524 -37.700924612
endloop
endfacet
facet normal 0.964362476 -0.107184219 0.241901961
outer loop
vertex -5.857474926 0.496287015 -38.668379695
vertex -6.052456839 0.848494190 -37.735008628
vertex -6.152955570 0.223092646 -37.611470858
endloop
endfacet
facet normal 0.625618196 -0.779821084 0.021930555
outer loop
vertex -6.052456839 0.848494190 -37.735008628
vertex -5.082833363 1.627341524 -37.700924612
vertex -5.765304525 1.112763143 -36.529622422
endloop
endfacet
facet normal 0.983101874 -0.170925279 -0.065538197
outer loop
vertex -6.152955570 0.223092646 -37.611470858
vertex -6.052456839 0.848494190 -37.735008628
vertex -5.973389266 0.691014944 -36.138250272
endloop
endfacet
facet normal 0.990843549 -0.102102317 -0.088341260
outer loop
vertex -6.016337738 0.111857535 -35.950590548
vertex -6.152955570 0.223092646 -37.611470858
vertex -5.973389266 0.691014944 -36.138250272
endloop
endfacet
facet normal 0.856195921 -0.508298376 -0.092527325
outer loop
vertex -6.052456839 0.848494190 -37.735008628
vertex -5.765304525 1.112763143 -36.529622422
vertex -5.973389266 0.691014944 -36.138250272
endloop
endfacet
facet normal 0.440595634 -0.887754828 -0.133292355
outer loop
vertex -5.082833363 1.627341524 -37.700924612
vertex -4.943347665 1.449923561 -36.058216434
vertex -5.765304525 1.112763143 -36.529622422
endloop
endfacet
facet normal -0.051529841 -0.998240876 0.029322851
outer loop
vertex -5.082833363 1.627341524 -37.700924612
vertex -4.135011687 1.558939201 -38.363919273
vertex -3.739797305 1.568888073 -37.330707860
endloop
endfacet
facet normal -0.014000116 -0.994246951 -0.106193209
outer loop
vertex -5.082833363 1.627341524 -37.700924612
vertex -3.739797305 1.568888073 -37.330707860
vertex -4.943347665 1.449923561 -36.058216434
endloop
endfacet
facet normal -0.125248659 -0.969833252 -0.209132103
outer loop
vertex -4.943347665 1.449923561 -36.058216434
vertex -3.739797305 1.568888073 -37.330707860
vertex -3.745949063 1.310117418 -36.126995555
endloop
endfacet
facet normal -0.436995086 0.176149903 0.882046771
outer loop
vertex -2.390747399 -0.548889820 -38.979900464
vertex -2.817487641 0.179233971 -39.336732248
vertex -4.019431650 -0.572010038 -39.782187159
endloop
endfacet
facet normal -0.304083168 -0.076536893 0.949565970
outer loop
vertex -2.817487641 0.179233971 -39.336732248
vertex -3.922717873 0.556212526 -39.660279166
vertex -4.019431650 -0.572010038 -39.782187159
endloop
endfacet
facet normal -0.405114190 -0.583939470 0.703489295
outer loop
vertex -3.648428395 1.230560060 -38.942575705
vertex -3.922717873 0.556212526 -39.660279166
vertex -2.817487641 0.179233971 -39.336732248
endloop
endfacet
facet normal -0.483697343 -0.615567325 0.622184657
outer loop
vertex -1.601855241 0.827008999 -37.750792621
vertex -3.648428395 1.230560060 -38.942575705
vertex -2.817487641 0.179233971 -39.336732248
endloop
endfacet
facet normal -0.306497138 -0.915207572 0.261638308
outer loop
vertex -3.648428395 1.230560060 -38.942575705
vertex -1.534670842 1.050190487 -37.097337344
vertex -4.135011687 1.558939201 -38.363919273
endloop
endfacet
facet normal -0.691102671 -0.051750471 0.720901510
outer loop
vertex -2.390747399 -0.548889820 -38.979900464
vertex -1.121676097 -0.475388472 -37.758010533
vertex -2.817487641 0.179233971 -39.336732248
endloop
endfacet
facet normal -0.700827283 -0.119518698 0.703247041
outer loop
vertex -2.817487641 0.179233971 -39.336732248
vertex -1.121676097 -0.475388472 -37.758010533
vertex -1.562291450 0.389510798 -38.050117878
endloop
endfacet
facet normal -0.580115797 -0.495021706 0.646853285
outer loop
vertex -1.562291450 0.389510798 -38.050117878
vertex -1.601855241 0.827008999 -37.750792621
vertex -2.817487641 0.179233971 -39.336732248
endloop
endfacet
facet normal -0.365916124 -0.868546066 0.334265046
outer loop
vertex -3.648428395 1.230560060 -38.942575705
vertex -1.601855241 0.827008999 -37.750792621
vertex -1.534670842 1.050190487 -37.097337344
endloop
endfacet
facet normal -0.203235773 -0.957045752 -0.206781647
outer loop
vertex -1.534670842 1.050190487 -37.097337344
vertex -3.745949063 1.310117418 -36.126995555
vertex -3.739797305 1.568888073 -37.330707860
endloop
endfacet
facet normal -0.358770243 -0.684980424 -0.634102304
outer loop
vertex -1.534670842 1.050190487 -37.097337344
vertex -2.440765531 0.730181510 -36.238990525
vertex -3.745949063 1.310117418 -36.126995555
endloop
endfacet
facet normal -0.237864686 -0.966106935 0.100288496
outer loop
vertex -3.739797305 1.568888073 -37.330707860
vertex -4.135011687 1.558939201 -38.363919273
vertex -1.534670842 1.050190487 -37.097337344
endloop
endfacet
facet normal -0.392883423 -0.543195083 0.742011939
outer loop
vertex -1.562291450 0.389510798 -38.050117878
vertex -0.319043130 0.380676495 -37.398305044
vertex -1.601855241 0.827008999 -37.750792621
endloop
endfacet
facet normal -0.862604023 -0.337320854 -0.376999921
outer loop
vertex -1.720917141 -0.111327497 -36.581940701
vertex -1.953639881 -0.125641107 -36.036646552
vertex -2.065948416 0.677730196 -36.498493068
endloop
endfacet
facet normal -0.545138997 -0.473807438 -0.691614044
outer loop
vertex -2.440765531 0.730181510 -36.238990525
vertex -2.065948416 0.677730196 -36.498493068
vertex -1.953639881 -0.125641107 -36.036646552
endloop
endfacet
facet normal -0.561899347 -0.379920998 -0.734798720
outer loop
vertex -2.065948416 0.677730196 -36.498493068
vertex -2.440765531 0.730181510 -36.238990525
vertex -1.534670842 1.050190487 -37.097337344
endloop
endfacet
facet normal 0.997385152 -0.072020216 0.005995568
outer loop
vertex -6.016337738 0.111857535 -35.950590548
vertex -5.973389266 0.691014944 -36.138250272
vertex -5.992069505 0.569596016 -34.489236341
endloop
endfacet
facet normal 0.887586465 -0.460024991 -0.023817515
outer loop
vertex -5.992069505 0.569596016 -34.489236341
vertex -5.973389266 0.691014944 -36.138250272
vertex -5.765304525 1.112763143 -36.529622422
endloop
endfacet
facet normal 0.352402085 -0.934302351 0.053776280
outer loop
vertex -5.765304525 1.112763143 -36.529622422
vertex -4.943347665 1.449923561 -36.058216434
vertex -5.136411535 1.438937944 -34.983909648
endloop
endfacet
facet normal 0.996179698 -0.086680378 0.010607574
outer loop
vertex -6.016337738 0.111857535 -35.950590548
vertex -5.992069505 0.569596016 -34.489236341
vertex -6.036179220 0.073279430 -34.402478247
endloop
endfacet
facet normal 0.672703732 -0.730179158 -0.119616414
outer loop
vertex -5.992069505 0.569596016 -34.489236341
vertex -5.765304525 1.112763143 -36.529622422
vertex -5.136411535 1.438937944 -34.983909648
endloop
endfacet
facet normal 0.650811019 -0.739191450 -0.173323450
outer loop
vertex -5.992069505 0.569596016 -34.489236341
vertex -5.136411535 1.438937944 -34.983909648
vertex -5.443018155 0.888691977 -33.788490640
endloop
endfacet
facet normal -0.107686853 -0.985777869 0.129017575
outer loop
vertex -4.943347665 1.449923561 -36.058216434
vertex -3.745949063 1.310117418 -36.126995555
vertex -3.763519585 1.436388689 -35.176866785
endloop
endfacet
facet normal -0.003379201 -0.999935618 -0.010832392
outer loop
vertex -4.943347665 1.449923561 -36.058216434
vertex -3.763519585 1.436388689 -35.176866785
vertex -5.136411535 1.438937944 -34.983909648
endloop
endfacet
facet normal -0.014231034 -0.996010403 -0.088095148
outer loop
vertex -4.376148281 1.344041953 -34.033822563
vertex -5.136411535 1.438937944 -34.983909648
vertex -3.763519585 1.436388689 -35.176866785
endloop
endfacet
facet normal 0.884512307 -0.155495993 -0.439839715
outer loop
vertex -5.464799270 0.067837860 -33.251516379
vertex -6.036179220 0.073279430 -34.402478247
vertex -5.992069505 0.569596016 -34.489236341
endloop
endfacet
facet normal 0.809559886 -0.336258616 -0.481189084
outer loop
vertex -5.464799270 0.067837860 -33.251516379
vertex -5.992069505 0.569596016 -34.489236341
vertex -5.443018155 0.888691977 -33.788490640
endloop
endfacet
facet normal 0.835476001 0.362452221 -0.413047504
outer loop
vertex -6.036179220 0.073279430 -34.402478247
vertex -5.464799270 0.067837860 -33.251516379
vertex -5.037009007 -0.485515523 -32.871791690
endloop
endfacet
facet normal 0.481123674 -0.211807549 -0.850680652
outer loop
vertex -5.037009007 -0.485515523 -32.871791690
vertex -5.464799270 0.067837860 -33.251516379
vertex -4.494496767 0.107591372 -32.712635649
endloop
endfacet
facet normal 0.469143746 -0.326194194 -0.820671368
outer loop
vertex -4.801962453 0.802659040 -33.164671210
vertex -4.494496767 0.107591372 -32.712635649
vertex -5.464799270 0.067837860 -33.251516379
endloop
endfacet
facet normal 0.304422504 -0.892528098 -0.332746952
outer loop
vertex -5.136411535 1.438937944 -34.983909648
vertex -4.376148281 1.344041953 -34.033822563
vertex -5.443018155 0.888691977 -33.788490640
endloop
endfacet
facet normal 0.278199745 -0.870525602 -0.405943442
outer loop
vertex -5.443018155 0.888691977 -33.788490640
vertex -4.376148281 1.344041953 -34.033822563
vertex -4.801962453 0.802659040 -33.164671210
endloop
endfacet
facet normal 0.589780093 -0.452991404 -0.668549347
outer loop
vertex -4.801962453 0.802659040 -33.164671210
vertex -5.464799270 0.067837860 -33.251516379
vertex -5.443018155 0.888691977 -33.788490640
endloop
endfacet
facet normal 0.279899043 0.001594345 -0.960028116
outer loop
vertex -4.166159350 -0.657610579 -32.618178693
vertex -5.037009007 -0.485515523 -32.871791690
vertex -4.494496767 0.107591372 -32.712635649
endloop
endfacet
facet normal 0.004954532 -0.120414915 -0.992711288
outer loop
vertex -3.705748681 0.353220520 -32.738493656
vertex -4.166159350 -0.657610579 -32.618178693
vertex -4.494496767 0.107591372 -32.712635649
endloop
endfacet
facet normal 0.020878754 -0.853176870 -0.521203709
outer loop
vertex -4.801962453 0.802659040 -33.164671210
vertex -4.376148281 1.344041953 -34.033822563
vertex -3.602043914 1.186526923 -33.744970983
endloop
endfacet
facet normal 0.127757148 -0.500392400 -0.856320943
outer loop
vertex -4.801962453 0.802659040 -33.164671210
vertex -3.705748681 0.353220520 -32.738493656
vertex -4.494496767 0.107591372 -32.712635649
endloop
endfacet
facet normal -0.064837530 -0.765346463 -0.640344349
outer loop
vertex -4.801962453 0.802659040 -33.164671210
vertex -3.602043914 1.186526923 -33.744970983
vertex -3.705748681 0.353220520 -32.738493656
endloop
endfacet
facet normal -0.338142048 -0.842135173 0.420081308
outer loop
vertex -3.745949063 1.310117418 -36.126995555
vertex -2.440765531 0.730181510 -36.238990525
vertex -2.131101634 1.062744252 -35.323041257
endloop
endfacet
facet normal -0.210726242 -0.969526368 0.124952280
outer loop
vertex -3.763519585 1.436388689 -35.176866785
vertex -3.745949063 1.310117418 -36.126995555
vertex -2.131101634 1.062744252 -35.323041257
endloop
endfacet
facet normal -0.141241453 -0.977813598 -0.154697830
outer loop
vertex -4.376148281 1.344041953 -34.033822563
vertex -3.763519585 1.436388689 -35.176866785
vertex -3.602043914 1.186526923 -33.744970983
endloop
endfacet
facet normal -0.232904313 -0.962132040 -0.141624572
outer loop
vertex -3.602043914 1.186526923 -33.744970983
vertex -3.763519585 1.436388689 -35.176866785
vertex -2.131101634 1.062744252 -35.323041257
endloop
endfacet
facet normal -0.569589406 -0.132412365 0.811193488
outer loop
vertex -2.440765531 0.730181510 -36.238990525
vertex -1.953639881 -0.125641107 -36.036646552
vertex -1.875595686 0.544652299 -35.872433842
endloop
endfacet
facet normal -0.525228212 -0.727371414 0.441662939
outer loop
vertex -2.440765531 0.730181510 -36.238990525
vertex -1.875595686 0.544652299 -35.872433842
vertex -2.131101634 1.062744252 -35.323041257
endloop
endfacet
facet normal -0.400751138 -0.715182855 -0.572636019
outer loop
vertex -3.602043914 1.186526923 -33.744970983
vertex -0.447825895 0.559604365 -35.169422414
vertex -2.307079317 0.796239351 -34.163791225
endloop
endfacet
facet normal -0.267295469 -0.947624096 -0.174819062
outer loop
vertex -3.602043914 1.186526923 -33.744970983
vertex -2.131101634 1.062744252 -35.323041257
vertex -0.447825895 0.559604365 -35.169422414
endloop
endfacet
facet normal -0.208262612 -0.021528790 -0.977835976
outer loop
vertex -4.166159350 -0.657610579 -32.618178693
vertex -3.705748681 0.353220520 -32.738493656
vertex -3.020071501 -0.878211225 -32.857419209
endloop
endfacet
facet normal -0.383803285 -0.125353349 -0.914866972
outer loop
vertex -2.523690083 -0.585096402 -33.105822256
vertex -3.020071501 -0.878211225 -32.857419209
vertex -3.705748681 0.353220520 -32.738493656
endloop
endfacet
facet normal -0.469006927 -0.260466554 -0.843913311
outer loop
vertex -2.771220240 0.408973988 -33.275067993
vertex -2.523690083 -0.585096402 -33.105822256
vertex -3.705748681 0.353220520 -32.738493656
endloop
endfacet
facet normal -0.315758632 -0.714615601 -0.624196307
outer loop
vertex -3.602043914 1.186526923 -33.744970983
vertex -2.771220240 0.408973988 -33.275067993
vertex -3.705748681 0.353220520 -32.738493656
endloop
endfacet
facet normal -0.397505694 -0.746885410 -0.533058541
outer loop
vertex -3.602043914 1.186526923 -33.744970983
vertex -2.307079317 0.796239351 -34.163791225
vertex -2.771220240 0.408973988 -33.275067993
endloop
endfacet
facet normal -0.769791983 0.075225011 -0.633846591
outer loop
vertex -2.523690083 -0.585096402 -33.105822256
vertex -1.168303841 0.246929691 -34.653162425
vertex -1.592679656 -0.638504727 -34.242851335
endloop
endfacet
facet normal -0.641798394 -0.281276808 -0.713427066
outer loop
vertex -2.771220240 0.408973988 -33.275067993
vertex -1.168303841 0.246929691 -34.653162425
vertex -2.523690083 -0.585096402 -33.105822256
endloop
endfacet
facet normal -0.611930030 0.588246176 -0.528685232
outer loop
vertex -3.020071501 -0.878211225 -32.857419209
vertex -2.523690083 -0.585096402 -33.105822256
vertex -1.592679656 -0.638504727 -34.242851335
endloop
endfacet
facet normal -0.542639388 -0.628489733 -0.557263986
outer loop
vertex -1.168303841 0.246929691 -34.653162425
vertex -2.771220240 0.408973988 -33.275067993
vertex -2.307079317 0.796239351 -34.163791225
endloop
endfacet
facet normal -0.385316499 0.113014979 0.915837764
outer loop
vertex -1.562291450 0.389510798 -38.050117878
vertex -1.121676097 -0.475388472 -37.758010533
vertex -0.487071514 -0.297710617 -37.512941629
endloop
endfacet
facet normal -0.464250556 -0.034566470 0.885029141
outer loop
vertex -1.562291450 0.389510798 -38.050117878
vertex -0.487071514 -0.297710617 -37.512941629
vertex -0.319043130 0.380676495 -37.398305044
endloop
endfacet
facet normal -0.123415356 0.229237926 -0.965514694
outer loop
vertex -0.968121425 -0.161030437 -36.689966349
vertex -1.720917141 -0.111327497 -36.581940701
vertex -0.587420522 0.528444803 -36.574929740
endloop
endfacet
facet normal 0.072828545 0.124880888 -0.989495208
outer loop
vertex -0.011032382 -0.116782249 -36.613938536
vertex -0.968121425 -0.161030437 -36.689966349
vertex -0.587420522 0.528444803 -36.574929740
endloop
endfacet
facet normal -0.042713968 0.086584473 -0.995328411
outer loop
vertex -0.587420522 0.528444803 -36.574929740
vertex -1.720917141 -0.111327497 -36.581940701
vertex -2.065948416 0.677730196 -36.498493068
endloop
endfacet
facet normal -0.185581940 -0.923895690 0.334628297
outer loop
vertex -1.601855241 0.827008999 -37.750792621
vertex 0.510474175 0.694749419 -36.944476662
vertex -1.534670842 1.050190487 -37.097337344
endloop
endfacet
facet normal -0.354737145 -0.328145135 0.875489765
outer loop
vertex -1.601855241 0.827008999 -37.750792621
vertex -0.319043130 0.380676495 -37.398305044
vertex 0.510474175 0.694749419 -36.944476662
endloop
endfacet
facet normal -0.111152806 -0.796666646 -0.594110520
outer loop
vertex -1.534670842 1.050190487 -37.097337344
vertex -0.587420522 0.528444803 -36.574929740
vertex -2.065948416 0.677730196 -36.498493068
endloop
endfacet
facet normal -0.089602106 -0.781234059 -0.617774075
outer loop
vertex -1.534670842 1.050190487 -37.097337344
vertex 0.510474175 0.694749419 -36.944476662
vertex -0.587420522 0.528444803 -36.574929740
endloop
endfacet
facet normal -0.223574286 -0.108309759 0.968650368
outer loop
vertex 0.659537153 -0.496929453 -37.270568449
vertex -0.319043130 0.380676495 -37.398305044
vertex -0.487071514 -0.297710617 -37.512941629
endloop
endfacet
facet normal 0.174766025 0.214221384 -0.961023431
outer loop
vertex 1.051353736 0.324117170 -36.322458564
vertex -0.011032382 -0.116782249 -36.613938536
vertex -0.587420522 0.528444803 -36.574929740
endloop
endfacet
facet normal 0.301185404 -0.098714720 -0.948442279
outer loop
vertex 0.879685252 -0.279702174 -36.314127202
vertex -0.011032382 -0.116782249 -36.613938536
vertex 1.051353736 0.324117170 -36.322458564
endloop
endfacet
facet normal -0.033072812 -0.870973857 -0.490214984
outer loop
vertex 1.051353736 0.324117170 -36.322458564
vertex -0.587420522 0.528444803 -36.574929740
vertex 0.510474175 0.694749419 -36.944476662
endloop
endfacet
facet normal -0.098690372 -0.225932976 0.969130796
outer loop
vertex -0.374951966 -0.216411061 -35.897043754
vertex -1.875595686 0.544652299 -35.872433842
vertex -1.953639881 -0.125641107 -36.036646552
endloop
endfacet
facet normal 0.095769091 0.157050410 0.982936137
outer loop
vertex 0.147484980 0.360870042 -36.040181786
vertex -1.875595686 0.544652299 -35.872433842
vertex -0.374951966 -0.216411061 -35.897043754
endloop
endfacet
facet normal -0.380257832 0.176346648 -0.907912904
outer loop
vertex 0.445078801 0.218440769 -35.334423049
vertex -0.612048086 -0.466030220 -35.024617327
vertex -1.168303841 0.246929691 -34.653162425
endloop
endfacet
facet normal -0.052747863 -0.738643571 0.672029269
outer loop
vertex -0.184652640 0.701903427 -35.566872496
vertex -2.131101634 1.062744252 -35.323041257
vertex -1.875595686 0.544652299 -35.872433842
endloop
endfacet
facet normal -0.217053220 -0.864549404 -0.453257353
outer loop
vertex -2.131101634 1.062744252 -35.323041257
vertex -0.184652640 0.701903427 -35.566872496
vertex -0.447825895 0.559604365 -35.169422414
endloop
endfacet
facet normal -0.027074548 -0.819947850 0.571797597
outer loop
vertex -1.875595686 0.544652299 -35.872433842
vertex 0.147484980 0.360870042 -36.040181786
vertex -0.184652640 0.701903427 -35.566872496
endloop
endfacet
facet normal 0.311135026 -0.075385439 0.947371116
outer loop
vertex -0.374951966 -0.216411061 -35.897043754
vertex 0.879685252 -0.279702174 -36.314127202
vertex 1.051353736 0.324117170 -36.322458564
endloop
endfacet
facet normal 0.296764906 -0.031921352 0.954416900
outer loop
vertex 1.051353736 0.324117170 -36.322458564
vertex 0.147484980 0.360870042 -36.040181786
vertex -0.374951966 -0.216411061 -35.897043754
endloop
endfacet
facet normal -0.315085373 0.057865108 -0.947297650
outer loop
vertex 0.529127817 -0.617410749 -35.413436497
vertex -0.612048086 -0.466030220 -35.024617327
vertex 0.445078801 0.218440769 -35.334423049
endloop
endfacet
facet normal 0.121150823 -0.857735919 0.499611420
outer loop
vertex 1.824794265 0.548322802 -36.125092646
vertex 0.147484980 0.360870042 -36.040181786
vertex 1.051353736 0.324117170 -36.322458564
endloop
endfacet
facet normal 0.117537849 -0.764755370 0.633509336
outer loop
vertex 0.147484980 0.360870042 -36.040181786
vertex 1.824794265 0.548322802 -36.125092646
vertex -0.184652640 0.701903427 -35.566872496
endloop
endfacet
facet normal -0.215971454 -0.865093407 -0.452735826
outer loop
vertex -0.184652640 0.701903427 -35.566872496
vertex 2.127720156 0.195223373 -35.701787687
vertex -0.447825895 0.559604365 -35.169422414
endloop
endfacet
facet normal -0.210668301 -0.819553220 -0.532870891
outer loop
vertex -0.184652640 0.701903427 -35.566872496
vertex 1.824794265 0.548322802 -36.125092646
vertex 2.127720156 0.195223373 -35.701787687
endloop
endfacet
facet normal -0.213629643 -0.088589465 -0.972889656
outer loop
vertex -0.447825895 0.559604365 -35.169422414
vertex 2.127720156 0.195223373 -35.701787687
vertex 0.445078801 0.218440769 -35.334423049
endloop
endfacet
facet normal -0.614308276 -0.069791837 -0.785973563
outer loop
vertex -1.592679656 -0.638504727 -34.242851335
vertex -1.168303841 0.246929691 -34.653162425
vertex -0.612048086 -0.466030220 -35.024617327
endloop
endfacet
facet normal -0.484738476 -0.261268869 -0.834725816
outer loop
vertex -1.168303841 0.246929691 -34.653162425
vertex -2.307079317 0.796239351 -34.163791225
vertex -0.447825895 0.559604365 -35.169422414
endloop
endfacet
facet normal -0.341560606 -0.513106911 -0.787437394
outer loop
vertex -1.168303841 0.246929691 -34.653162425
vertex -0.447825895 0.559604365 -35.169422414
vertex 0.445078801 0.218440769 -35.334423049
endloop
endfacet
facet normal -0.200124282 -0.595583030 0.777966019
outer loop
vertex -0.319043130 0.380676495 -37.398305044
vertex 2.674931497 -0.229540337 -37.095294080
vertex 0.510474175 0.694749419 -36.944476662
endloop
endfacet
facet normal -0.168042711 -0.529220137 0.831677638
outer loop
vertex 2.209372962 0.412226671 -36.780986838
vertex 0.510474175 0.694749419 -36.944476662
vertex 2.674931497 -0.229540337 -37.095294080
endloop
endfacet
facet normal 0.358485354 -0.631185417 -0.687817723
outer loop
vertex 1.051353736 0.324117170 -36.322458564
vertex 0.510474175 0.694749419 -36.944476662
vertex 1.824794265 0.548322802 -36.125092646
endloop
endfacet
facet normal -0.172732901 -0.979673218 0.101998678
outer loop
vertex 1.824794265 0.548322802 -36.125092646
vertex 0.510474175 0.694749419 -36.944476662
vertex 2.209372962 0.412226671 -36.780986838
endloop
endfacet
facet normal -0.068168376 0.626021927 -0.776820198
outer loop
vertex 2.819409145 -0.868626669 -35.816865032
vertex 0.529127817 -0.617410749 -35.413436497
vertex 2.796351201 -0.768918802 -35.734489298
endloop
endfacet
facet normal -0.285420304 0.007093566 0.958376195
outer loop
vertex 2.674931497 -0.229540337 -37.095294080
vertex 2.256528368 -0.695339875 -37.216453776
vertex 3.082778572 -0.968467760 -36.968361183
endloop
endfacet
facet normal -0.947103739 -0.164288123 0.275688084
outer loop
vertex 3.082778572 -0.968467760 -36.968361183
vertex 3.268305625 -1.008771371 -36.355015992
vertex 3.066979769 -0.016434626 -36.455300811
endloop
endfacet
facet normal -0.756799005 -0.319782408 0.570082869
outer loop
vertex 2.674931497 -0.229540337 -37.095294080
vertex 3.082778572 -0.968467760 -36.968361183
vertex 3.066979769 -0.016434626 -36.455300811
endloop
endfacet
facet normal -0.531282093 -0.650958454 0.542210687
outer loop
vertex 2.209372962 0.412226671 -36.780986838
vertex 2.674931497 -0.229540337 -37.095294080
vertex 3.066979769 -0.016434626 -36.455300811
endloop
endfacet
facet normal -0.657564423 0.383632245 -0.648409847
outer loop
vertex 3.268305625 -1.008771371 -36.355015992
vertex 2.819409145 -0.868626669 -35.816865032
vertex 2.796351201 -0.768918802 -35.734489298
endloop
endfacet
facet normal -0.813731148 -0.144910690 -0.562887653
outer loop
vertex 3.268305625 -1.008771371 -36.355015992
vertex 2.796351201 -0.768918802 -35.734489298
vertex 2.833304171 -0.059155560 -35.970632448
endloop
endfacet
facet normal -0.870724633 -0.221047546 -0.439291015
outer loop
vertex 2.833304171 -0.059155560 -35.970632448
vertex 3.066979769 -0.016434626 -36.455300811
vertex 3.268305625 -1.008771371 -36.355015992
endloop
endfacet
facet normal -0.426915264 -0.902084735 -0.063138651
outer loop
vertex 1.824794265 0.548322802 -36.125092646
vertex 2.209372962 0.412226671 -36.780986838
vertex 3.066979769 -0.016434626 -36.455300811
endloop
endfacet
facet normal -0.459369673 -0.837715097 -0.295318337
outer loop
vertex 3.066979769 -0.016434626 -36.455300811
vertex 2.833304171 -0.059155560 -35.970632448
vertex 1.824794265 0.548322802 -36.125092646
endloop
endfacet
facet normal -0.436802860 -0.819492075 -0.370993262
outer loop
vertex 2.833304171 -0.059155560 -35.970632448
vertex 2.127720156 0.195223373 -35.701787687
vertex 1.824794265 0.548322802 -36.125092646
endloop
endfacet
facet normal -0.425416653 -0.265682755 -0.865120423
outer loop
vertex 2.796351201 -0.768918802 -35.734489298
vertex 2.127720156 0.195223373 -35.701787687
vertex 2.833304171 -0.059155560 -35.970632448
endloop
endfacet
facet normal -0.040145888 -0.217602539 0.975211486
outer loop
vertex 1.388351195 -0.585564555 -37.227698881
vertex 2.256528368 -0.695339875 -37.216453776
vertex 2.674931497 -0.229540337 -37.095294080
endloop
endfacet
facet normal -0.213399878 -0.115086659 -0.970162643
outer loop
vertex 2.127720156 0.195223373 -35.701787687
vertex 2.796351201 -0.768918802 -35.734489298
vertex 0.445078801 0.218440769 -35.334423049
endloop
endfacet
facet normal -0.134527453 0.079839244 -0.987688240
outer loop
vertex 2.796351201 -0.768918802 -35.734489298
vertex 0.529127817 -0.617410749 -35.413436497
vertex 0.445078801 0.218440769 -35.334423049
endloop
endfacet
facet normal -0.092106125 0.042099353 0.994858837
outer loop
vertex 0.659537153 -0.496929453 -37.270568449
vertex 2.674931497 -0.229540337 -37.095294080
vertex -0.319043130 0.380676495 -37.398305044
endloop
endfacet
facet normal -0.071658936 -0.109733488 0.991374580
outer loop
vertex 1.388351195 -0.585564555 -37.227698881
vertex 2.674931497 -0.229540337 -37.095294080
vertex 0.659537153 -0.496929453 -37.270568449
endloop
endfacet
endsolid WRAP
